<?xml version="1.0" encoding="UTF-8" standalone="no"?>
<!DOCTYPE svg PUBLIC "-//W3C//DTD SVG 1.1//EN" "http://www.w3.org/Graphics/SVG/1.1/DTD/svg11.dtd">
<!-- Created with Vectornator (http://vectornator.io/) -->
<svg stroke-miterlimit="10" style="fill-rule:nonzero;clip-rule:evenodd;stroke-linecap:round;stroke-linejoin:round;" version="1.1" viewBox="0 0 1024 1024" xml:space="preserve" xmlns="http://www.w3.org/2000/svg" xmlns:xlink="http://www.w3.org/1999/xlink">
<defs/>
<clipPath id="ArtboardFrame">
<rect height="1024" width="1024" x="0" y="0"/>
</clipPath>
<g clip-path="url(#ArtboardFrame)" id="レイヤー-1">
<g opacity="1">
<path d="M64 64C192-64 832-64 960 64C1088 192 1088 832 960 960C832 1088 192 1088 64 960C-64 832-64 192 64 64Z" fill="#c2b8b0" fill-rule="nonzero" opacity="1" stroke="none"/>
<g opacity="1">
<path d="M1280 64L1280 384L1152 448L1152 704L960 704L896 768L704 704L768 832L832 960L1152 1152L704 1280L640 1024L576 960L473.81 888.503L405.635 823.045L363.594 647.053L381.727 552.728L392.589 512L320 448L256 448L256 384L256 384C256 384 283.381 324.516 301.707 299.793C318.553 277.068 351.106 252.484 371.59 243.184C392.075 233.883 432.442 222.7 472.265 223.896C512 225.089 542.291 235.572 570.91 257.042C590.186 271.504 606.905 304.231 613.778 316.98C623.582 335.166 644.343 382.528 644.343 382.528C644.343 382.528 746.736 291.24 804.187 258.969C960.152 171.363 1280 64 1280 64L1280 64Z" fill="#149bb8" fill-rule="nonzero" opacity="1" stroke="none"/>
<path d="M384 512C384 512 353.03 577.956 353.03 657.956C353.03 737.956 370.616 785 411.472 837.984C436.66 870.65 444.315 878.905 457.859 889.038C465.166 894.505 474.188 900.519 488.603 911.209C529.735 941.713 576 960 576 960L704 1024L768 1024L768 960C768 960 728.137 924.885 716.011 895.614C704.264 867.255 704 768 704 768L704 704L885.793 726.115L945.093 663.473L1052.84 671.825L1216 448L1152 192C1152 192 973.401 266.234 908.413 295.519C843.426 324.804 828.05 341.14 764.05 373.14C700.05 405.14 631.411 463.474 631.411 463.474L576 448L542.508 414.508L512 384C512 384 481.537 364.084 449.537 364.084C417.537 364.084 414.921 358.59 382.537 379.569C350.153 400.548 307.335 437.397 307.335 437.397L384 512Z" fill="#dfa446" fill-rule="nonzero" opacity="1" stroke="none"/>
<path d="M256 384L325.547 449.876L0 448C0 448 40.239 410.69 76.2124 400.382C103.259 392.632 256 384 256 384Z" fill="#3e4041" fill-rule="nonzero" opacity="1" stroke="none"/>
<path d="M438.841 363.526C438.841 363.526 458.282 346.304 512 364.066C565.718 381.829 635.691 461.778 635.691 461.778L633.724 524.329L438.841 363.526Z" fill="#e9edee" fill-rule="nonzero" opacity="1" stroke="none"/>
</g>
</g>
</g>
</svg>
