<svg xmlns="http://www.w3.org/2000/svg" xml:space="preserve" stroke-miterlimit="10" style="fill-rule:nonzero;clip-rule:evenodd;stroke-linecap:round;stroke-linejoin:round" viewBox="0 0 1024 1024"><clipPath id="a"><path d="M0 0h1024v1024H0z"/></clipPath><g clip-path="url(#a)"><path fill="#c2b8b0" d="M64 64C192-64 832-64 960 64s128 768 0 896-768 128-896 0-128-768 0-896Z"/><path fill="#149bb8" d="M1280 64v320l-128 64v256H960l-64 64-192-64 64 128 64 128 320 192-448 128-64-256-64-64-102.19-71.497-68.175-65.458-42.041-175.992 18.133-94.325L392.589 512 320 448h-64v-64s27.381-59.484 45.707-84.207c16.846-22.725 49.399-47.309 69.883-56.609 20.485-9.301 60.852-20.484 100.675-19.288 39.735 1.193 70.026 11.676 98.645 33.146 19.276 14.462 35.995 47.189 42.868 59.938 9.804 18.186 30.565 65.548 30.565 65.548s102.393-91.288 159.844-123.559C960.152 171.363 1280 64 1280 64Z"/><path fill="#dfa446" d="M384 512s-30.97 65.956-30.97 145.956c0 80 17.586 127.044 58.442 180.028 25.188 32.666 32.843 40.921 46.387 51.054 7.307 5.467 16.329 11.481 30.744 22.171C529.735 941.713 576 960 576 960l128 64h64v-64s-39.863-35.115-51.989-64.386C704.264 867.255 704 768 704 768v-64l181.793 22.115 59.3-62.642 107.747 8.352L1216 448l-64-256s-178.599 74.234-243.587 103.519c-64.987 29.285-80.363 45.621-144.363 77.621-64 32-132.639 90.334-132.639 90.334L576 448l-33.492-33.492L512 384s-30.463-19.916-62.463-19.916-34.616-5.494-67 15.485-75.202 57.828-75.202 57.828L384 512Z"/><path fill="#3e4041" d="m256 384 69.547 65.876L0 448s40.239-37.31 76.212-47.618C103.26 392.632 256 384 256 384Z"/><path fill="#e9edee" d="M438.841 363.526s19.441-17.222 73.159.54c53.718 17.763 123.691 97.712 123.691 97.712l-1.967 62.551-194.883-160.803Z"/></g></svg>